<svg xmlns="http://www.w3.org/2000/svg" version="1.1" xmlns:xlink="http://www.w3.org/1999/xlink" xmlns:svgjs="http://svgjs.dev/svgjs" width="2000" height="1247" viewBox="0 0 2000 1247"><g transform="matrix(1,0,0,1,-1.2121212121212466,0.504858299595071)"><svg viewBox="0 0 396 247" data-background-color="#ffffff" preserveAspectRatio="xMidYMid meet" height="1247" width="2000" xmlns="http://www.w3.org/2000/svg" xmlns:xlink="http://www.w3.org/1999/xlink"><g id="tight-bounds" transform="matrix(1,0,0,1,0.2400000000000091,-0.09999999999999432)"><svg viewBox="0 0 395.52 247.2" height="247.2" width="395.52"><g><svg></svg></g><g><svg viewBox="0 0 395.52 247.2" height="247.2" width="395.52"><g transform="matrix(1,0,0,1,122.91890479041915,47.215199999999996)"><svg viewBox="0 0 149.68219041916169 152.7696" height="152.7696" width="149.68219041916169"><g><svg viewBox="0 0 149.68219041916169 152.7696" height="152.7696" width="149.68219041916169"><g><svg viewBox="0 0 149.68219041916169 152.7696" height="152.7696" width="149.68219041916169"><g><svg viewBox="0 0 149.68219041916169 152.7696" height="152.7696" width="149.68219041916169"><g id="textblocktransform"><svg viewBox="0 0 149.68219041916169 152.7696" height="152.7696" width="149.68219041916169" id="textblock"><g><svg viewBox="0 0 149.68219041916169 152.7696" height="152.7696" width="149.68219041916169"><g transform="matrix(1,0,0,1,0,0)"><svg width="149.68219041916169" viewBox="0.35 -33.4 32.724997296 33.4" height="152.7696" data-palette-color="#00a8ff"><path d="M33-33.4L33.05-33.4Q33.15-31.75 32.85-27.98 32.55-24.2 32.1-21.8L32.1-21.8 27.4-21.8 26.65-28.8 21.25-29.3 21.25-3.45 26.15-2.65 26.1 0 7.6 0 7.3-1.6Q8.75-2.6 12.2-4.1L12.2-4.1 12.2-29.3 6.75-28.8 6-21.8 1.35-21.8Q0.35-26.15 0.35-31.9L0.35-31.9 0.4-33.4 16.8-33.2 33-33.4Z" opacity="1" transform="matrix(1,0,0,1,0,0)" fill="#00a8ff" class="wordmark-text-0" data-fill-palette-color="primary" id="text-0"></path></svg></g></svg></g></svg></g></svg></g></svg></g></svg></g></svg></g><g><path d="M198.441 0c30.402 0 58.24 10.976 79.768 29.183l-11.147 0c-19.26-14.022-42.974-22.294-68.621-22.295-25.647 0-49.361 8.272-68.621 22.295l-11.147 0c21.528-18.206 49.366-29.183 79.768-29.183zM322.041 123.6c0 6.257-0.465 12.406-1.362 18.413l0-36.826c0.897 6.007 1.362 12.156 1.362 18.413zM198.441 247.2c-30.402 0-58.24-10.976-79.768-29.183l11.147 0c19.26 14.022 42.974 22.294 68.621 22.295 25.647 0 49.361-8.272 68.621-22.295l11.147 0c-21.528 18.206-49.366 29.183-79.768 29.183z" fill="#00a8ff" stroke="transparent" data-fill-palette-color="tertiary"></path></g></svg></g><defs></defs></svg><rect width="395.52" height="247.2" fill="none" stroke="none" visibility="hidden"></rect></g></svg></g></svg>